<svg width="100" height="100" viewBox="0 0 100 100" fill="none" xmlns="http://www.w3.org/2000/svg">
<g clip-path="url(#clip0_1933_5)">
<path d="M100 17.0238C100 7.62179 92.3782 0 82.9762 0H17.0239C7.62185 0 0 7.62179 0 17.0238V82.9762C0 92.3782 7.62185 100 17.0239 100H82.9762C92.3782 100 100 92.3782 100 82.9762V17.0238Z" fill="#181B23"/>
<path d="M75.7845 32.7246C78.2796 37.2958 79.5283 42.3576 79.5283 47.9102V76.3837H63.7094V47.9102C63.7094 43.551 62.5136 39.8259 60.1237 36.7317C57.733 33.6392 54.3585 32.0921 50 32.0921C45.64 32.0921 42.2654 33.6392 39.8764 36.7317C37.4848 39.8259 36.2906 43.551 36.2906 47.9102V76.3837H20.4718V47.9102C20.4718 42.3576 21.7189 37.2958 24.2156 32.7246C26.7107 28.1551 30.1741 24.5164 34.6034 21.8086C39.0327 19.1041 44.1638 17.7494 50 17.7494C55.8346 17.7494 60.9674 19.1041 65.3967 21.8086C69.826 24.5164 73.2878 28.1551 75.7845 32.7246Z" fill="#3CE8A1"/>
<path d="M50.0915 63.0378C48.1116 63.0378 46.4336 63.7392 45.0595 65.142C43.6841 66.5434 42.9975 68.2076 42.9975 70.1319C42.9975 72.1124 43.6841 73.7905 45.0595 75.1639C46.4336 76.5387 48.1116 77.2274 50.0915 77.2274C52.0158 77.2274 53.68 76.5387 55.0827 75.1639C56.4849 73.7905 57.1862 72.1124 57.1862 70.1319C57.1862 68.2076 56.4849 66.5434 55.0827 65.142C53.68 63.7392 52.0158 63.0378 50.0915 63.0378Z" fill="white"/>
</g>
<defs>
<clipPath id="clip0_1933_5">
<rect width="100" height="100" fill="white"/>
</clipPath>
</defs>
</svg>
