<svg width="18" height="18" viewBox="0 0 18 18" fill="none" xmlns="http://www.w3.org/2000/svg">
<path d="M8.81088 4.72721C8.81088 4.38798 8.9356 4.09864 9.18503 3.85918C9.43447 3.61973 9.72381 3.5 10.0531 3.5C10.3524 3.5 10.5968 3.59478 10.7864 3.78435C10.976 3.97392 11.0707 4.20839 11.0707 4.48775C11.0707 4.83696 10.946 5.13129 10.6966 5.37075C10.4472 5.6102 10.1578 5.72993 9.82857 5.72993C9.52925 5.72993 9.28481 5.63515 9.09524 5.44558C8.90567 5.24603 8.81088 5.00658 8.81088 4.72721ZM8.72109 14.5H7L8.40306 7.95239H10.1241L8.72109 14.5Z" fill="white"/>
</svg>
