<svg width="40" height="40" viewBox="0 0 40 40" fill="none" xmlns="http://www.w3.org/2000/svg">
<path d="M9.93711 36C6.91824 36 4.48637 34.7111 2.64151 32.1333C0.880503 29.4667 0 26.2222 0 22.4C0 16.7111 1.55136 12.2667 4.65409 9.06666C7.84067 5.86666 12.2013 4.17778 17.7359 4V10.2667C14.0461 10.3556 11.3627 11.4667 9.68553 13.6C8.00838 15.7333 7.16981 18.1778 7.16981 20.9333C7.16981 21.7333 7.21174 22.3111 7.2956 22.6667C8.30189 21.6 9.72746 21.0667 11.5723 21.0667C13.5849 21.0667 15.1782 21.6889 16.3522 22.9333C17.6101 24.1778 18.239 25.9556 18.239 28.2667C18.239 30.4889 17.4843 32.3556 15.9748 33.8667C14.5493 35.2889 12.5367 36 9.93711 36ZM31.6981 36C28.6792 36 26.2474 34.7111 24.4025 32.1333C22.6415 29.4667 21.761 26.2222 21.761 22.4C21.761 16.7111 23.3124 12.2667 26.4151 9.06666C29.6017 5.86666 33.9623 4.17778 39.4969 4V10.2667C35.8071 10.3556 33.1237 11.4667 31.4465 13.6C29.7694 15.7333 28.9308 18.1778 28.9308 20.9333C28.9308 21.7333 28.9727 22.3111 29.0566 22.6667C30.0629 21.6 31.4885 21.0667 33.3333 21.0667C35.2621 21.0667 36.8553 21.6889 38.1132 22.9333C39.3711 24.1778 40 25.9556 40 28.2667C40 30.4889 39.2453 32.3556 37.7358 33.8667C36.3103 35.2889 34.2977 36 31.6981 36Z" fill="#F0DA60"/>
</svg>
