<svg width="19" height="19" viewBox="0 0 19 19" fill="none" xmlns="http://www.w3.org/2000/svg">
<path d="M16.4733 11.9418L13.1609 10.4575L13.1517 10.4533C12.9798 10.3797 12.7922 10.3502 12.6059 10.3674C12.4197 10.3846 12.2407 10.4479 12.0851 10.5517C12.0668 10.5638 12.0492 10.5769 12.0324 10.5911L10.3209 12.0501C9.23672 11.5234 8.11735 10.4125 7.59071 9.34232L9.0518 7.6049C9.06587 7.58732 9.07923 7.56975 9.09188 7.55076C9.19343 7.39558 9.25505 7.21771 9.27124 7.03296C9.28743 6.84822 9.2577 6.66233 9.18469 6.49186V6.48342L7.69618 3.16537C7.59967 2.94267 7.43372 2.75715 7.22311 2.63651C7.01249 2.51587 6.76851 2.46658 6.52758 2.496C5.57483 2.62137 4.70029 3.08927 4.0673 3.81231C3.43432 4.53536 3.08617 5.46409 3.0879 6.42506C3.0879 12.0079 7.63008 16.5501 13.2129 16.5501C14.1739 16.5518 15.1026 16.2036 15.8256 15.5707C16.5487 14.9377 17.0166 14.0631 17.142 13.1104C17.1714 12.8695 17.1222 12.6256 17.0017 12.415C16.8812 12.2044 16.6959 12.0384 16.4733 11.9418ZM13.2129 15.4251C10.8267 15.4225 8.53908 14.4734 6.85181 12.7861C5.16455 11.0989 4.2155 8.81121 4.2129 6.42506C4.21025 5.73845 4.45762 5.07435 4.90881 4.55679C5.35999 4.03923 5.98414 3.70359 6.66469 3.61256C6.66442 3.61536 6.66442 3.61819 6.66469 3.621L8.14126 6.92568L6.6879 8.66522C6.67315 8.68219 6.65975 8.70029 6.64782 8.71936C6.54201 8.88172 6.47994 9.06866 6.46762 9.26207C6.4553 9.45548 6.49315 9.64879 6.57751 9.82326C7.21454 11.1262 8.52727 12.429 9.84422 13.0654C10.02 13.1489 10.2144 13.1855 10.4085 13.1714C10.6026 13.1574 10.7898 13.0932 10.9516 12.9852C10.9697 12.9731 10.9871 12.9599 11.0037 12.9458L12.713 11.4876L16.0177 12.9676C16.0177 12.9676 16.0233 12.9676 16.0254 12.9676C15.9355 13.6492 15.6003 14.2746 15.0827 14.7269C14.565 15.1792 13.9003 15.4274 13.2129 15.4251Z" fill="white"/>
</svg>
