<svg width="18" height="18" viewBox="0 0 18 18" fill="none" xmlns="http://www.w3.org/2000/svg">
<path fill-rule="evenodd" clip-rule="evenodd" d="M3.14634 1C2.5771 1 2.03117 1.22613 1.62865 1.62865C1.22613 2.03117 1 2.5771 1 3.14634C1 3.71559 1.22613 4.26152 1.62865 4.66403C2.03117 5.06655 2.5771 5.29268 3.14634 5.29268C3.71559 5.29268 4.26152 5.06655 4.66403 4.66403C5.06655 4.26152 5.29268 3.71559 5.29268 3.14634C5.29268 2.5771 5.06655 2.03117 4.66403 1.62865C4.26152 1.22613 3.71559 1 3.14634 1ZM2.17073 3.14634C2.17073 2.88759 2.27352 2.63944 2.45648 2.45648C2.63944 2.27352 2.88759 2.17073 3.14634 2.17073C3.40509 2.17073 3.65324 2.27352 3.8362 2.45648C4.01916 2.63944 4.12195 2.88759 4.12195 3.14634C4.12195 3.40509 4.01916 3.65324 3.8362 3.8362C3.65324 4.01916 3.40509 4.12195 3.14634 4.12195C2.88759 4.12195 2.63944 4.01916 2.45648 3.8362C2.27352 3.65324 2.17073 3.40509 2.17073 3.14634Z" fill="#181B23"/>
<path fill-rule="evenodd" clip-rule="evenodd" d="M1 6.26847C1 6.11322 1.06167 5.96433 1.17145 5.85456C1.28123 5.74478 1.43012 5.68311 1.58537 5.68311H4.70732C4.86257 5.68311 5.01146 5.74478 5.12123 5.85456C5.23101 5.96433 5.29268 6.11322 5.29268 6.26847V16.4148C5.29268 16.5701 5.23101 16.719 5.12123 16.8287C5.01146 16.9385 4.86257 17.0002 4.70732 17.0002H1.58537C1.43012 17.0002 1.28123 16.9385 1.17145 16.8287C1.06167 16.719 1 16.5701 1 16.4148V6.26847ZM2.17073 6.85384V15.8294H4.12195V6.85384H2.17073Z" fill="#181B23"/>
<path fill-rule="evenodd" clip-rule="evenodd" d="M6.46387 6.26847C6.46387 6.11322 6.52554 5.96433 6.63532 5.85456C6.74509 5.74478 6.89398 5.68311 7.04923 5.68311H10.1712C10.3264 5.68311 10.4753 5.74478 10.5851 5.85456C10.6949 5.96433 10.7566 6.11322 10.7566 6.26847V6.6072L11.0961 6.46125C11.6814 6.21109 12.3025 6.05438 12.9365 5.99686C15.1023 5.80018 17.0005 7.50164 17.0005 9.68701V16.4148C17.0005 16.5701 16.9388 16.719 16.829 16.8287C16.7192 16.9385 16.5703 17.0002 16.4151 17.0002H13.2931C13.1379 17.0002 12.989 16.9385 12.8792 16.8287C12.7694 16.719 12.7078 16.5701 12.7078 16.4148V10.9514C12.7078 10.6927 12.605 10.4445 12.422 10.2615C12.2391 10.0786 11.9909 9.97579 11.7322 9.97579C11.4734 9.97579 11.2253 10.0786 11.0423 10.2615C10.8593 10.4445 10.7566 10.6927 10.7566 10.9514V16.4148C10.7566 16.5701 10.6949 16.719 10.5851 16.8287C10.4753 16.9385 10.3264 17.0002 10.1712 17.0002H7.04923C6.89398 17.0002 6.74509 16.9385 6.63532 16.8287C6.52554 16.719 6.46387 16.5701 6.46387 16.4148V6.26847ZM7.6346 6.85384V15.8294H9.58582V10.9514C9.58582 10.3822 9.81195 9.83622 10.2145 9.43371C10.617 9.03119 11.1629 8.80506 11.7322 8.80506C12.3014 8.80506 12.8473 9.03119 13.2499 9.43371C13.6524 9.83622 13.8785 10.3822 13.8785 10.9514V15.8294H15.8297V9.68701C15.8297 8.20096 14.5333 7.02711 13.0434 7.16291C12.5322 7.20974 12.0272 7.33618 11.5573 7.53754L10.4022 8.03315C10.3131 8.07142 10.2159 8.08696 10.1193 8.07837C10.0227 8.06978 9.9298 8.03733 9.84886 7.98394C9.76792 7.93054 9.70151 7.85788 9.65559 7.77247C9.60968 7.68706 9.5857 7.59158 9.58582 7.49462V6.85384H7.6346Z" fill="#181B23"/>
</svg>
