<svg width="19" height="19" viewBox="0 0 19 19" fill="none" xmlns="http://www.w3.org/2000/svg">
<path d="M15.9773 2.58911H3.60229C3.30393 2.58911 3.01778 2.70764 2.8068 2.91862C2.59582 3.12959 2.47729 3.41574 2.47729 3.71411V16.0891C2.47729 16.3875 2.59582 16.6736 2.8068 16.8846C3.01778 17.0956 3.30393 17.2141 3.60229 17.2141H15.9773C16.2757 17.2141 16.5618 17.0956 16.7728 16.8846C16.9838 16.6736 17.1023 16.3875 17.1023 16.0891V3.71411C17.1023 3.41574 16.9838 3.12959 16.7728 2.91862C16.5618 2.70764 16.2757 2.58911 15.9773 2.58911ZM15.9773 16.0891H3.60229V3.71411H15.9773V16.0891ZM7.53979 8.77661V13.2766C7.53979 13.4258 7.48053 13.5689 7.37504 13.6744C7.26955 13.7798 7.12648 13.8391 6.97729 13.8391C6.82811 13.8391 6.68504 13.7798 6.57955 13.6744C6.47406 13.5689 6.41479 13.4258 6.41479 13.2766V8.77661C6.41479 8.62743 6.47406 8.48435 6.57955 8.37886C6.68504 8.27337 6.82811 8.21411 6.97729 8.21411C7.12648 8.21411 7.26955 8.27337 7.37504 8.37886C7.48053 8.48435 7.53979 8.62743 7.53979 8.77661ZM13.7273 10.7454V13.2766C13.7273 13.4258 13.668 13.5689 13.5625 13.6744C13.4571 13.7798 13.314 13.8391 13.1648 13.8391C13.0156 13.8391 12.8725 13.7798 12.767 13.6744C12.6616 13.5689 12.6023 13.4258 12.6023 13.2766V10.7454C12.6023 10.3724 12.4541 10.0147 12.1904 9.75099C11.9267 9.48727 11.569 9.33911 11.196 9.33911C10.8231 9.33911 10.4654 9.48727 10.2017 9.75099C9.93795 10.0147 9.78979 10.3724 9.78979 10.7454V13.2766C9.78979 13.4258 9.73053 13.5689 9.62504 13.6744C9.51955 13.7798 9.37648 13.8391 9.22729 13.8391C9.07811 13.8391 8.93504 13.7798 8.82955 13.6744C8.72406 13.5689 8.66479 13.4258 8.66479 13.2766V8.77661C8.66549 8.63883 8.71674 8.5061 8.8088 8.40359C8.90087 8.30108 9.02736 8.23594 9.16428 8.2205C9.30119 8.20507 9.43901 8.24042 9.55159 8.31986C9.66417 8.39929 9.74367 8.51729 9.77503 8.65145C10.1556 8.39332 10.5992 8.24371 11.0583 8.2187C11.5175 8.19368 11.9747 8.2942 12.3811 8.50947C12.7874 8.72473 13.1274 9.04661 13.3646 9.44053C13.6017 9.83446 13.7271 10.2855 13.7273 10.7454ZM7.82104 6.80786C7.82104 6.97474 7.77156 7.13787 7.67885 7.27662C7.58614 7.41538 7.45436 7.52352 7.30018 7.58738C7.14601 7.65125 6.97636 7.66796 6.81269 7.6354C6.64902 7.60284 6.49867 7.52248 6.38067 7.40448C6.26267 7.28648 6.18231 7.13614 6.14976 6.97247C6.1172 6.8088 6.13391 6.63915 6.19777 6.48497C6.26163 6.3308 6.36978 6.19902 6.50853 6.10631C6.64729 6.0136 6.81042 5.96411 6.97729 5.96411C7.20107 5.96411 7.41568 6.05301 7.57392 6.21124C7.73215 6.36947 7.82104 6.58408 7.82104 6.80786Z" fill="white"/>
</svg>
