<svg width="18" height="18" viewBox="0 0 18 18" fill="none" xmlns="http://www.w3.org/2000/svg">
<path fill-rule="evenodd" clip-rule="evenodd" d="M1.5 9C1.5 13.1266 4.87344 16.5 9 16.5C13.1266 16.5 16.5 13.1266 16.5 9C16.5 4.87344 13.1266 1.5 9 1.5C4.87344 1.5 1.5 4.87344 1.5 9ZM9 15.1364C5.62656 15.1364 2.86364 12.3734 2.86364 9C2.86364 5.62656 5.62656 2.86364 9 2.86364C12.3734 2.86364 15.1364 5.62656 15.1364 9C15.1364 12.3734 12.3734 15.1364 9 15.1364Z" fill="white"/>
<path fill-rule="evenodd" clip-rule="evenodd" d="M9.00178 12.4092C8.62522 12.4092 8.31996 12.1039 8.31996 11.7274V9.00009C8.31996 8.62353 8.62522 8.31827 9.00178 8.31827C9.37833 8.31827 9.68359 8.62353 9.68359 9.00009V11.7274C9.68359 12.1039 9.37833 12.4092 9.00178 12.4092Z" fill="white"/>
<path fill-rule="evenodd" clip-rule="evenodd" d="M8.08594 6.27255C8.08594 6.77463 8.49295 7.18164 8.99503 7.18164H9.00116C9.50324 7.18164 9.91026 6.77463 9.91026 6.27255C9.91026 5.77047 9.50324 5.36346 9.00116 5.36346H8.99503C8.49295 5.36346 8.08594 5.77047 8.08594 6.27255Z" fill="white"/>
</svg>
