<svg width="18" height="18" viewBox="0 0 18 18" fill="none" xmlns="http://www.w3.org/2000/svg">
<g clip-path="url(#clip0_2068_3541)">
<path d="M7.125 10.3124C7.125 11.0399 7.6875 11.6249 8.3775 11.6249H9.7875C10.3875 11.6249 10.875 11.1149 10.875 10.4774C10.875 9.79493 10.575 9.54743 10.1325 9.38993L7.875 8.60243C7.4325 8.44493 7.1325 8.20493 7.1325 7.51493C7.1325 6.88493 7.62 6.36743 8.22 6.36743H9.63C10.32 6.36743 10.8825 6.95243 10.8825 7.67993" stroke="#7954FF" stroke-width="1.2" stroke-linecap="round" stroke-linejoin="round"/>
<path d="M9 5.625V12.375" stroke="#7954FF" stroke-width="1.2" stroke-linecap="round" stroke-linejoin="round"/>
<path d="M16.5 9C16.5 13.14 13.14 16.5 9 16.5C4.86 16.5 1.5 13.14 1.5 9C1.5 4.86 4.86 1.5 9 1.5" stroke="#7954FF" stroke-width="1.2" stroke-linecap="round" stroke-linejoin="round"/>
<path d="M12.75 2.25V5.25H15.75" stroke="#7954FF" stroke-width="1.2" stroke-linecap="round" stroke-linejoin="round"/>
<path d="M16.5 1.5L12.75 5.25" stroke="#7954FF" stroke-width="1.2" stroke-linecap="round" stroke-linejoin="round"/>
</g>
<defs>
<clipPath id="clip0_2068_3541">
<rect width="18" height="18" fill="white"/>
</clipPath>
</defs>
</svg>
