<svg width="18" height="18" viewBox="0 0 18 18" fill="none" xmlns="http://www.w3.org/2000/svg">
<path d="M8.99967 10.0726C9.30696 10.0726 9.61125 10.0121 9.89515 9.89446C10.179 9.77686 10.437 9.6045 10.6543 9.38721C10.8716 9.16992 11.044 8.91196 11.1615 8.62806C11.2791 8.34416 11.3397 8.03987 11.3397 7.73258C11.3397 7.42529 11.2791 7.121 11.1615 6.8371C11.044 6.5532 10.8716 6.29524 10.6543 6.07795C10.437 5.86066 10.179 5.6883 9.89515 5.5707C9.61125 5.4531 9.30696 5.39258 8.99967 5.39258C8.37906 5.39258 7.78387 5.63911 7.34504 6.07795C6.9062 6.51678 6.65967 7.11197 6.65967 7.73258C6.65967 8.35318 6.9062 8.94837 7.34504 9.38721C7.78387 9.82604 8.37906 10.0726 8.99967 10.0726Z" stroke="#00140F" stroke-width="1.5"/>
<path d="M2.71478 6.3675C4.19228 -0.127498 13.8148 -0.119998 15.2848 6.375C16.1473 10.185 13.7773 13.41 11.6998 15.405C10.9738 16.1052 10.0046 16.4964 8.99603 16.4964C7.98747 16.4964 7.01823 16.1052 6.29228 15.405C4.22228 13.41 1.85228 10.1775 2.71478 6.3675Z" stroke="#00140F" stroke-width="1.5"/>
</svg>
