<svg width="92" height="24" viewBox="0 0 92 24" fill="none" xmlns="http://www.w3.org/2000/svg">
<g clip-path="url(#clip0_1927_12)">
<path d="M17.1034 9.97837C17.8749 11.3918 18.261 12.957 18.261 14.6739V23.4783H13.3696V14.6739C13.3696 13.326 12.9999 12.1742 12.2609 11.2174C11.5216 10.2612 10.4782 9.78279 9.1305 9.78279C7.78232 9.78279 6.73887 10.2612 6.00013 11.2174C5.26064 12.1742 4.8914 13.326 4.8914 14.6739V23.4783H0V14.6739C0 12.957 0.385629 11.3918 1.15764 9.97837C1.92913 8.56542 3.00006 7.4403 4.36967 6.60301C5.73927 5.76673 7.32588 5.34784 9.1305 5.34784C10.9346 5.34784 12.5217 5.76673 13.8913 6.60301C15.2609 7.4403 16.3314 8.56542 17.1034 9.97837ZM39.2696 11.0541C39.7802 12.1847 40.0361 13.3915 40.0361 14.6739C40.0361 14.9784 40.0197 15.2662 39.9872 15.5379C39.9544 15.8101 39.9163 16.0874 39.873 16.3697H25.6555C26.0248 17.3047 26.6173 18.071 27.4327 18.6683C28.2478 19.2666 29.1879 19.5651 30.2533 19.5651C31.0359 19.5651 31.764 19.3917 32.438 19.0433C33.1117 18.696 33.6659 18.2393 34.1012 17.6737H39.5143C39.079 18.8916 38.4056 19.9784 37.4924 20.9347C36.5793 21.8914 35.5033 22.6415 34.2643 23.1849C33.025 23.7278 31.6881 24 30.2533 24C28.9051 24 27.6391 23.7606 26.4545 23.2827C25.2691 22.8048 24.2315 22.1364 23.3403 21.2769C22.4485 20.4185 21.7476 19.4239 21.237 18.2933C20.7258 17.1636 20.4707 15.9568 20.4707 14.6739C20.4707 13.3915 20.7258 12.1847 21.237 11.0541C21.7476 9.92443 22.4485 8.92987 23.3403 8.0704C24.2315 7.21195 25.2691 6.54353 26.4545 6.06515C27.6391 5.58728 28.9051 5.34784 30.2533 5.34784C31.6009 5.34784 32.8672 5.58728 34.0523 6.06515C35.2369 6.54353 36.2748 7.21195 37.1663 8.0704C38.0575 8.92987 38.7587 9.92443 39.2696 11.0541ZM34.851 12.9782C34.4813 12.0436 33.8837 11.2774 33.0578 10.679C32.2313 10.0817 31.2967 9.78279 30.2533 9.78279C29.1879 9.78279 28.2478 10.0817 27.4327 10.679C26.6173 11.2774 26.0248 12.0436 25.6555 12.9782H34.851ZM61.1716 11.0541C61.6822 12.1847 61.938 13.3915 61.938 14.6739C61.938 14.9784 61.9217 15.2662 61.8892 15.5379C61.8564 15.8101 61.8183 16.0874 61.775 16.3697H47.5575C47.9267 17.3047 48.5193 18.071 49.3347 18.6683C50.1498 19.2666 51.0899 19.5651 52.1553 19.5651C52.9379 19.5651 53.666 19.3917 54.34 19.0433C55.0137 18.696 55.5679 18.2393 56.0032 17.6737H61.4163C60.981 18.8916 60.3076 19.9784 59.3944 20.9347C58.4813 21.8914 57.4053 22.6415 56.1663 23.1849C54.927 23.7278 53.5901 24 52.1553 24C50.8071 24 49.5411 23.7606 48.3565 23.2827C47.1711 22.8048 46.1335 22.1364 45.2422 21.2769C44.3505 20.4185 43.6496 19.4239 43.139 18.2933C42.6278 17.1636 42.3727 15.9568 42.3727 14.6739C42.3727 13.3915 42.6278 12.1847 43.139 11.0541C43.6496 9.92443 44.3505 8.92987 45.2422 8.0704C46.1335 7.21195 47.1711 6.54353 48.3565 6.06515C49.5411 5.58728 50.8071 5.34784 52.1553 5.34784C53.5029 5.34784 54.7692 5.58728 55.9543 6.06515C57.1389 6.54353 58.1768 7.21195 59.0683 8.0704C59.9595 8.92987 60.6607 9.92443 61.1716 11.0541ZM56.753 12.9782C56.3833 12.0436 55.7857 11.2774 54.9598 10.679C54.1333 10.0817 53.1987 9.78279 52.1553 9.78279C51.0899 9.78279 50.1498 10.0817 49.3347 10.679C48.5193 11.2774 47.9267 12.0436 47.5575 12.9782H56.753ZM78.7536 0H83.6442V23.4783H79.0792V21.3914C78.4925 22.1959 77.7535 22.8315 76.8622 23.2988C75.97 23.7661 75.0032 24 73.9597 24C72.6335 24 71.3833 23.7606 70.2093 23.2827C69.0358 22.8048 68.003 22.1364 67.1117 21.2769C66.22 20.4185 65.5244 19.4239 65.0248 18.2933C64.5243 17.1636 64.2747 15.9568 64.2747 14.6739C64.2747 13.3915 64.5243 12.1847 65.0248 11.0541C65.5244 9.92443 66.22 8.92987 67.1117 8.0704C68.003 7.21195 69.0303 6.54353 70.1932 6.06515C71.3561 5.58728 72.6007 5.34784 73.9269 5.34784C74.8615 5.34784 75.7371 5.51066 76.5517 5.8368C77.3673 6.16295 78.1013 6.59797 78.7536 7.14138V0ZM78.9492 14.6739C78.9492 13.761 78.7314 12.9348 78.2969 12.1958C77.8613 11.4568 77.2746 10.8701 76.5356 10.4346C75.7966 10 74.9704 9.78279 74.0575 9.78279C73.1441 9.78279 72.3179 10 71.5789 10.4346C70.8399 10.8701 70.2527 11.4568 69.8182 12.1958C69.3831 12.9348 69.1659 13.761 69.1659 14.6739C69.1659 15.5868 69.3831 16.4135 69.8182 17.152C70.2527 17.8915 70.8399 18.4783 71.5789 18.9133C72.3179 19.3483 73.1441 19.5651 74.0575 19.5651C74.9704 19.5651 75.7966 19.3483 76.5356 18.9133C77.2746 18.4783 77.8613 17.8915 78.2969 17.152C78.7314 16.4135 78.9492 15.5868 78.9492 14.6739ZM86.9046 0V23.4783H91.7963V0H86.9046Z" fill="#181B23"/>
<path d="M9.15889 19.3516C8.54671 19.3516 8.02782 19.5685 7.60294 20.0022C7.17764 20.4356 6.96533 20.9502 6.96533 21.5452C6.96533 22.1576 7.17764 22.6765 7.60294 23.1012C8.02782 23.5262 8.54671 23.7392 9.15889 23.7392C9.75393 23.7392 10.2685 23.5262 10.7022 23.1012C11.1358 22.6765 11.3527 22.1576 11.3527 21.5452C11.3527 20.9502 11.1358 20.4356 10.7022 20.0022C10.2685 19.5685 9.75393 19.3516 9.15889 19.3516Z" fill="#3CE8A1"/>
</g>
<defs>
<clipPath id="clip0_1927_12">
<rect width="91.7963" height="24" fill="white"/>
</clipPath>
</defs>
</svg>
