<svg width="279" height="279" viewBox="0 0 279 279" fill="none" xmlns="http://www.w3.org/2000/svg">
<g clip-path="url(#clip0_2105_7)">
<g opacity="0.1" clip-path="url(#clip1_2105_7)">
<path d="M60.3231 40.2123C59.1602 44.17 57.0245 47.7045 53.9146 50.8144L37.9669 66.7621L29.1069 57.9021L45.0547 41.9544C47.4962 39.5129 48.9128 36.7568 49.3073 33.6852C49.7004 30.6141 48.6768 27.8575 46.2357 25.4164C43.7937 22.9744 41.0371 21.9508 37.9669 22.3448C34.8944 22.7384 32.1392 24.1559 29.6977 26.5974L13.75 42.5452L4.89 33.6852L20.8377 17.7375C23.9476 14.6276 27.4812 12.491 31.4398 11.3291C35.3966 10.1672 39.3744 10.069 43.3719 11.0332C47.3675 11.9993 51.0001 14.1144 54.2689 17.3832C57.5368 20.6511 59.6528 24.2846 60.6189 28.2802C61.5831 32.2777 61.484 36.2546 60.3231 40.2123Z" fill="white"/>
<path d="M28.9537 42.7999C27.8449 41.6911 26.5122 41.144 24.9569 41.1601C23.4016 41.1747 22.085 41.7222 21.0072 42.8C19.8979 43.9092 19.3426 45.2337 19.3437 46.7733C19.3433 48.3129 19.8975 49.6385 21.0063 50.7473C22.0842 51.8252 23.402 52.3715 24.9576 52.3872C26.5122 52.4033 27.8449 51.8562 28.9541 50.7469C30.0319 49.6691 30.5712 48.3443 30.5708 46.774C30.5708 45.2026 30.0316 43.8778 28.9537 42.7999Z" fill="#FEDB76"/>
</g>
<g opacity="0.1" clip-path="url(#clip2_2105_7)">
<path d="M60.3231 175.628C59.1602 179.586 57.0245 183.12 53.9146 186.23L37.9669 202.178L29.1069 193.318L45.0547 177.37C47.4962 174.929 48.9128 172.173 49.3073 169.101C49.7004 166.03 48.6768 163.274 46.2357 160.832C43.7937 158.39 41.0371 157.367 37.9669 157.761C34.8944 158.154 32.1392 159.572 29.6977 162.013L13.75 177.961L4.89 169.101L20.8377 153.153C23.9476 150.044 27.4812 147.907 31.4398 146.745C35.3966 145.583 39.3744 145.485 43.3719 146.449C47.3675 147.415 51.0001 149.53 54.2689 152.799C57.5368 156.067 59.6528 159.701 60.6189 163.696C61.5831 167.694 61.484 171.671 60.3231 175.628Z" fill="white"/>
<path d="M28.9537 178.216C27.8449 177.107 26.5122 176.56 24.9569 176.576C23.4016 176.591 22.085 177.138 21.0072 178.216C19.8979 179.325 19.3426 180.65 19.3437 182.189C19.3433 183.729 19.8975 185.054 21.0063 186.163C22.0842 187.241 23.402 187.788 24.9576 187.803C26.5122 187.819 27.8449 187.272 28.9541 186.163C30.0319 185.085 30.5712 183.76 30.5708 182.19C30.5708 180.619 30.0316 179.294 28.9537 178.216Z" fill="#FEDB76"/>
</g>
<g opacity="0.1" clip-path="url(#clip3_2105_7)">
<path d="M198.909 40.2123C197.746 44.17 195.61 47.7045 192.501 50.8144L176.553 66.7621L167.693 57.9021L183.641 41.9544C186.082 39.5129 187.499 36.7568 187.893 33.6852C188.286 30.6141 187.263 27.8575 184.822 25.4164C182.38 22.9744 179.623 21.9508 176.553 22.3448C173.48 22.7384 170.725 24.1559 168.284 26.5974L152.336 42.5452L143.476 33.6852L159.424 17.7375C162.534 14.6276 166.067 12.491 170.026 11.3291C173.983 10.1672 177.96 10.069 181.958 11.0332C185.953 11.9993 189.586 14.1144 192.855 17.3832C196.123 20.6511 198.239 24.2846 199.205 28.2802C200.169 32.2777 200.07 36.2546 198.909 40.2123Z" fill="white"/>
<path d="M167.54 42.7999C166.431 41.6911 165.098 41.144 163.543 41.1601C161.988 41.1747 160.671 41.7222 159.593 42.8C158.484 43.9092 157.929 45.2337 157.93 46.7733C157.929 48.3129 158.483 49.6385 159.592 50.7473C160.67 51.8252 161.988 52.3715 163.544 52.3872C165.098 52.4033 166.431 51.8562 167.54 50.7469C168.618 49.6691 169.157 48.3443 169.157 46.774C169.157 45.2026 168.618 43.8778 167.54 42.7999Z" fill="#FEDB76"/>
</g>
<g opacity="0.1" clip-path="url(#clip4_2105_7)">
<path d="M198.909 175.628C197.746 179.586 195.61 183.12 192.501 186.23L176.553 202.178L167.693 193.318L183.641 177.37C186.082 174.929 187.499 172.173 187.893 169.101C188.286 166.03 187.263 163.274 184.822 160.832C182.38 158.39 179.623 157.367 176.553 157.761C173.48 158.154 170.725 159.572 168.284 162.013L152.336 177.961L143.476 169.101L159.424 153.153C162.534 150.044 166.067 147.907 170.026 146.745C173.983 145.583 177.96 145.485 181.958 146.449C185.953 147.415 189.586 149.53 192.855 152.799C196.123 156.067 198.239 159.701 199.205 163.696C200.169 167.694 200.07 171.671 198.909 175.628Z" fill="white"/>
<path d="M167.54 178.216C166.431 177.107 165.098 176.56 163.543 176.576C161.988 176.591 160.671 177.138 159.593 178.216C158.484 179.325 157.929 180.65 157.93 182.189C157.929 183.729 158.483 185.054 159.592 186.163C160.67 187.241 161.988 187.788 163.544 187.803C165.098 187.819 166.431 187.272 167.54 186.163C168.618 185.085 169.157 183.76 169.157 182.19C169.157 180.619 168.618 179.294 167.54 178.216Z" fill="#FEDB76"/>
</g>
<g opacity="0.1">
<path d="M123.119 26.1879C125.095 29.8086 126.084 33.818 126.084 38.2161V60.7696H113.555V38.2161C113.555 34.7633 112.607 31.8127 110.714 29.3618C108.821 26.9123 106.148 25.6868 102.696 25.6868C99.242 25.6868 96.5691 26.9123 94.6767 29.3618C92.7824 31.8127 91.8365 34.7633 91.8365 38.2161V60.7696H79.3066V38.2161C79.3066 33.818 80.2945 29.8086 82.272 26.1879C84.2484 22.5684 86.9917 19.6863 90.5001 17.5415C94.0085 15.3992 98.0728 14.3262 102.696 14.3262C107.317 14.3262 111.383 15.3992 114.891 17.5415C118.399 19.6863 121.141 22.5684 123.119 26.1879Z" fill="white"/>
<path d="M102.767 50.1982C101.199 50.1982 99.8701 50.7538 98.7817 51.8649C97.6923 52.975 97.1484 54.2931 97.1484 55.8174C97.1484 57.3861 97.6923 58.7153 98.7817 59.8032C99.8701 60.8921 101.199 61.4376 102.767 61.4376C104.292 61.4376 105.61 60.8921 106.721 59.8032C107.832 58.7153 108.387 57.3861 108.387 55.8174C108.387 54.2931 107.832 52.975 106.721 51.8649C105.61 50.7538 104.292 50.1982 102.767 50.1982Z" fill="#FEDB76"/>
</g>
<g opacity="0.1">
<path d="M123.119 161.604C125.095 165.225 126.084 169.234 126.084 173.632V196.186H113.555V173.632C113.555 170.179 112.607 167.229 110.714 164.778C108.821 162.328 106.148 161.103 102.696 161.103C99.242 161.103 96.5691 162.328 94.6767 164.778C92.7824 167.229 91.8365 170.179 91.8365 173.632V196.186H79.3066V173.632C79.3066 169.234 80.2945 165.225 82.272 161.604C84.2484 157.984 86.9917 155.102 90.5001 152.957C94.0085 150.815 98.0728 149.742 102.696 149.742C107.317 149.742 111.383 150.815 114.891 152.957C118.399 155.102 121.141 157.984 123.119 161.604Z" fill="white"/>
<path d="M102.767 185.614C101.199 185.614 99.8701 186.17 98.7817 187.281C97.6923 188.391 97.1484 189.709 97.1484 191.233C97.1484 192.802 97.6923 194.131 98.7817 195.219C99.8701 196.308 101.199 196.854 102.767 196.854C104.292 196.854 105.61 196.308 106.721 195.219C107.832 194.131 108.387 192.802 108.387 191.233C108.387 189.709 107.832 188.391 106.721 187.281C105.61 186.17 104.292 185.614 102.767 185.614Z" fill="#FEDB76"/>
</g>
<g opacity="0.1">
<path d="M261.703 26.1879C263.679 29.8086 264.668 33.818 264.668 38.2161V60.7696H252.139V38.2161C252.139 34.7633 251.191 31.8127 249.298 29.3618C247.405 26.9123 244.732 25.6868 241.28 25.6868C237.826 25.6868 235.153 26.9123 233.261 29.3618C231.366 31.8127 230.42 34.7633 230.42 38.2161V60.7696H217.891V38.2161C217.891 33.818 218.878 29.8086 220.856 26.1879C222.832 22.5684 225.576 19.6863 229.084 17.5415C232.592 15.3992 236.657 14.3262 241.28 14.3262C245.901 14.3262 249.967 15.3992 253.475 17.5415C256.983 19.6863 259.725 22.5684 261.703 26.1879Z" fill="white"/>
<path d="M241.35 50.1982C239.781 50.1982 238.452 50.7538 237.364 51.8649C236.274 52.975 235.73 54.2931 235.73 55.8174C235.73 57.3861 236.274 58.7153 237.364 59.8032C238.452 60.8921 239.781 61.4376 241.35 61.4376C242.874 61.4376 244.192 60.8921 245.303 59.8032C246.414 58.7153 246.969 57.3861 246.969 55.8174C246.969 54.2931 246.414 52.975 245.303 51.8649C244.192 50.7538 242.874 50.1982 241.35 50.1982Z" fill="#FEDB76"/>
</g>
<g opacity="0.1">
<path d="M261.703 161.604C263.679 165.225 264.668 169.234 264.668 173.632V196.186H252.139V173.632C252.139 170.179 251.191 167.229 249.298 164.778C247.405 162.328 244.732 161.103 241.28 161.103C237.826 161.103 235.153 162.328 233.261 164.778C231.366 167.229 230.42 170.179 230.42 173.632V196.186H217.891V173.632C217.891 169.234 218.878 165.225 220.856 161.604C222.832 157.984 225.576 155.102 229.084 152.957C232.592 150.815 236.657 149.742 241.28 149.742C245.901 149.742 249.967 150.815 253.475 152.957C256.983 155.102 259.725 157.984 261.703 161.604Z" fill="white"/>
<path d="M241.35 185.614C239.781 185.614 238.452 186.17 237.364 187.281C236.274 188.391 235.73 189.709 235.73 191.233C235.73 192.802 236.274 194.131 237.364 195.219C238.452 196.308 239.781 196.854 241.35 196.854C242.874 196.854 244.192 196.308 245.303 195.219C246.414 194.131 246.969 192.802 246.969 191.233C246.969 189.709 246.414 188.391 245.303 187.281C244.192 186.17 242.874 185.614 241.35 185.614Z" fill="#FEDB76"/>
</g>
<g opacity="0.1">
<path d="M57.7519 118.13C59.7282 114.509 60.7173 110.499 60.7173 106.101V83.5478H48.1874V106.101C48.1874 109.554 47.2402 112.505 45.3472 114.956C43.4535 117.405 40.7806 118.631 37.3284 118.631C33.8748 118.631 31.2019 117.405 29.3095 114.956C27.4152 112.505 26.4693 109.554 26.4693 106.101V83.5478H13.9395V106.101C13.9395 110.499 14.9273 114.509 16.9048 118.13C18.8812 121.749 21.6245 124.631 25.1329 126.776C28.6413 128.918 32.7056 129.991 37.3284 129.991C41.9498 129.991 46.0154 128.918 49.5238 126.776C53.0322 124.631 55.7743 121.749 57.7519 118.13Z" fill="white"/>
<path d="M37.4003 94.1187C35.8321 94.1187 34.503 93.5631 33.4145 92.452C32.3251 91.3419 31.7812 90.0238 31.7812 88.4995C31.7812 86.9308 32.3251 85.6016 33.4145 84.5137C34.503 83.4248 35.8321 82.8793 37.4003 82.8793C38.9246 82.8793 40.2427 83.4248 41.3538 84.5137C42.4645 85.6016 43.0199 86.9308 43.0199 88.4995C43.0199 90.0238 42.4645 91.3419 41.3538 92.452C40.2427 93.5631 38.9246 94.1187 37.4003 94.1187Z" fill="#FEDB76"/>
</g>
<g opacity="0.1">
<path d="M57.7519 253.546C59.7282 249.925 60.7173 245.915 60.7173 241.517V218.964H48.1874V241.517C48.1874 244.97 47.2402 247.921 45.3472 250.372C43.4535 252.821 40.7806 254.047 37.3284 254.047C33.8748 254.047 31.2019 252.821 29.3095 250.372C27.4152 247.921 26.4693 244.97 26.4693 241.517V218.964H13.9395V241.517C13.9395 245.915 14.9273 249.925 16.9048 253.546C18.8812 257.165 21.6245 260.047 25.1329 262.192C28.6413 264.334 32.7056 265.407 37.3284 265.407C41.9498 265.407 46.0154 264.334 49.5238 262.192C53.0322 260.047 55.7743 257.165 57.7519 253.546Z" fill="white"/>
<path d="M37.4003 229.535C35.8321 229.535 34.503 228.979 33.4145 227.868C32.3251 226.758 31.7812 225.44 31.7812 223.916C31.7812 222.347 32.3251 221.018 33.4145 219.93C34.503 218.841 35.8321 218.295 37.4003 218.295C38.9246 218.295 40.2427 218.841 41.3538 219.93C42.4645 221.018 43.0199 222.347 43.0199 223.916C43.0199 225.44 42.4645 226.758 41.3538 227.868C40.2427 228.979 38.9246 229.535 37.4003 229.535Z" fill="#FEDB76"/>
</g>
<g opacity="0.1">
<path d="M196.338 118.13C198.314 114.509 199.303 110.499 199.303 106.101V83.5478H186.773V106.101C186.773 109.554 185.826 112.505 183.933 114.956C182.039 117.405 179.367 118.631 175.914 118.631C172.461 118.631 169.788 117.405 167.895 114.956C166.001 112.505 165.055 109.554 165.055 106.101V83.5478H152.525V106.101C152.525 110.499 153.513 114.509 155.491 118.13C157.467 121.749 160.21 124.631 163.719 126.776C167.227 128.918 171.292 129.991 175.914 129.991C180.536 129.991 184.601 128.918 188.11 126.776C191.618 124.631 194.36 121.749 196.338 118.13Z" fill="white"/>
<path d="M175.986 94.1187C174.418 94.1187 173.089 93.5631 172 92.452C170.911 91.3419 170.367 90.0238 170.367 88.4995C170.367 86.9308 170.911 85.6016 172 84.5137C173.089 83.4248 174.418 82.8793 175.986 82.8793C177.511 82.8793 178.829 83.4248 179.94 84.5137C181.05 85.6016 181.606 86.9308 181.606 88.4995C181.606 90.0238 181.05 91.3419 179.94 92.452C178.829 93.5631 177.511 94.1187 175.986 94.1187Z" fill="#FEDB76"/>
</g>
<g opacity="0.1">
<path d="M196.338 253.546C198.314 249.925 199.303 245.915 199.303 241.517V218.964H186.773V241.517C186.773 244.97 185.826 247.921 183.933 250.372C182.039 252.821 179.367 254.047 175.914 254.047C172.461 254.047 169.788 252.821 167.895 250.372C166.001 247.921 165.055 244.97 165.055 241.517V218.964H152.525V241.517C152.525 245.915 153.513 249.925 155.491 253.546C157.467 257.165 160.21 260.047 163.719 262.192C167.227 264.334 171.292 265.407 175.914 265.407C180.536 265.407 184.601 264.334 188.11 262.192C191.618 260.047 194.36 257.165 196.338 253.546Z" fill="white"/>
<path d="M175.986 229.535C174.418 229.535 173.089 228.979 172 227.868C170.911 226.758 170.367 225.44 170.367 223.916C170.367 222.347 170.911 221.018 172 219.93C173.089 218.841 174.418 218.295 175.986 218.295C177.511 218.295 178.829 218.841 179.94 219.93C181.05 221.018 181.606 222.347 181.606 223.916C181.606 225.44 181.05 226.758 179.94 227.868C178.829 228.979 177.511 229.535 175.986 229.535Z" fill="#FEDB76"/>
</g>
<g opacity="0.1" clip-path="url(#clip5_2105_7)">
<path d="M79.6965 104.104C80.8593 100.146 82.995 96.6119 86.1049 93.502L102.053 77.5543L110.913 86.4143L94.9649 102.362C92.5233 104.804 91.1067 107.56 90.7123 110.631C90.3192 113.702 91.3427 116.459 93.7838 118.9C96.2258 121.342 98.9824 122.366 102.053 121.972C105.125 121.578 107.88 120.161 110.322 117.719L126.27 101.771L135.13 110.631L119.182 126.579C116.072 129.689 112.538 131.825 108.58 132.987C104.623 134.149 100.645 134.247 96.6477 133.283C92.6521 132.317 89.0194 130.202 85.7506 126.933C82.4827 123.665 80.3667 120.032 79.4007 116.036C78.4365 112.039 78.5355 108.062 79.6965 104.104Z" fill="white"/>
<path d="M111.066 101.516C112.175 102.625 113.507 103.172 115.063 103.156C116.618 103.142 117.935 102.594 119.012 101.516C120.122 100.407 120.677 99.0827 120.676 97.5431C120.676 96.0035 120.122 94.6779 119.013 93.5691C117.935 92.4912 116.618 91.9449 115.062 91.9292C113.507 91.9131 112.175 92.4602 111.065 93.5695C109.988 94.6473 109.448 95.9721 109.449 97.5424C109.449 99.1138 109.988 100.439 111.066 101.516Z" fill="#FEDB76"/>
</g>
<g opacity="0.1" clip-path="url(#clip6_2105_7)">
<path d="M79.6965 239.521C80.8593 235.563 82.995 232.028 86.1049 228.919L102.053 212.971L110.913 221.831L94.9649 237.778C92.5233 240.22 91.1067 242.976 90.7123 246.048C90.3192 249.119 91.3427 251.875 93.7838 254.317C96.2258 256.759 98.9824 257.782 102.053 257.388C105.125 256.995 107.88 255.577 110.322 253.135L126.27 237.188L135.13 246.048L119.182 261.995C116.072 265.105 112.538 267.242 108.58 268.404C104.623 269.566 100.645 269.664 96.6477 268.7C92.6521 267.734 89.0194 265.619 85.7506 262.35C82.4827 259.082 80.3667 255.448 79.4007 251.453C78.4365 247.455 78.5355 243.478 79.6965 239.521Z" fill="white"/>
<path d="M111.066 236.933C112.175 238.042 113.507 238.589 115.063 238.573C116.618 238.558 117.935 238.011 119.012 236.933C120.122 235.824 120.677 234.499 120.676 232.96C120.676 231.42 120.122 230.094 119.013 228.986C117.935 227.908 116.618 227.361 115.062 227.346C113.507 227.33 112.175 227.877 111.065 228.986C109.988 230.064 109.448 231.389 109.449 232.959C109.449 234.53 109.988 235.855 111.066 236.933Z" fill="#FEDB76"/>
</g>
<g opacity="0.1" clip-path="url(#clip7_2105_7)">
<path d="M218.282 104.104C219.445 100.146 221.581 96.6119 224.691 93.502L240.639 77.5543L249.499 86.4143L233.551 102.362C231.109 104.804 229.693 107.56 229.298 110.631C228.905 113.702 229.929 116.459 232.37 118.9C234.812 121.342 237.568 122.366 240.639 121.972C243.711 121.578 246.466 120.161 248.908 117.719L264.856 101.771L273.715 110.631L257.768 126.579C254.658 129.689 251.124 131.825 247.166 132.987C243.209 134.149 239.231 134.247 235.234 133.283C231.238 132.317 227.605 130.202 224.337 126.933C221.069 123.665 218.953 120.032 217.987 116.036C217.022 112.039 217.121 108.062 218.282 104.104Z" fill="white"/>
<path d="M249.652 101.516C250.761 102.625 252.093 103.172 253.649 103.156C255.204 103.142 256.521 102.594 257.598 101.516C258.708 100.407 259.263 99.0827 259.262 97.5431C259.262 96.0035 258.708 94.6779 257.599 93.5691C256.521 92.4912 255.204 91.9449 253.648 91.9292C252.093 91.9131 250.761 92.4602 249.651 93.5695C248.574 94.6473 248.034 95.9721 248.035 97.5424C248.035 99.1138 248.574 100.439 249.652 101.516Z" fill="#FEDB76"/>
</g>
<g opacity="0.1" clip-path="url(#clip8_2105_7)">
<path d="M218.282 239.521C219.445 235.563 221.581 232.028 224.691 228.919L240.639 212.971L249.499 221.831L233.551 237.778C231.109 240.22 229.693 242.976 229.298 246.048C228.905 249.119 229.929 251.875 232.37 254.317C234.812 256.759 237.568 257.782 240.639 257.388C243.711 256.995 246.466 255.577 248.908 253.135L264.856 237.188L273.715 246.048L257.768 261.995C254.658 265.105 251.124 267.242 247.166 268.404C243.209 269.566 239.231 269.664 235.234 268.7C231.238 267.734 227.605 265.619 224.337 262.35C221.069 259.082 218.953 255.448 217.987 251.453C217.022 247.455 217.121 243.478 218.282 239.521Z" fill="white"/>
<path d="M249.652 236.933C250.761 238.042 252.093 238.589 253.649 238.573C255.204 238.558 256.521 238.011 257.598 236.933C258.708 235.824 259.263 234.499 259.262 232.96C259.262 231.42 258.708 230.094 257.599 228.986C256.521 227.908 255.204 227.361 253.648 227.346C252.093 227.33 250.761 227.877 249.651 228.986C248.574 230.064 248.034 231.389 248.035 232.959C248.035 234.53 248.574 235.855 249.652 236.933Z" fill="#FEDB76"/>
</g>
</g>
<defs>
<clipPath id="clip0_2105_7">
<rect width="279" height="279" fill="white"/>
</clipPath>
<clipPath id="clip1_2105_7">
<rect width="57.0302" height="57.0302" fill="white" transform="translate(37.3262 -6) rotate(45)"/>
</clipPath>
<clipPath id="clip2_2105_7">
<rect width="57.0302" height="57.0302" fill="white" transform="translate(37.3262 129.416) rotate(45)"/>
</clipPath>
<clipPath id="clip3_2105_7">
<rect width="57.0302" height="57.0302" fill="white" transform="translate(175.912 -6) rotate(45)"/>
</clipPath>
<clipPath id="clip4_2105_7">
<rect width="57.0302" height="57.0302" fill="white" transform="translate(175.912 129.416) rotate(45)"/>
</clipPath>
<clipPath id="clip5_2105_7">
<rect width="57.0302" height="57.0302" fill="white" transform="translate(102.693 150.316) rotate(-135)"/>
</clipPath>
<clipPath id="clip6_2105_7">
<rect width="57.0302" height="57.0302" fill="white" transform="translate(102.693 285.733) rotate(-135)"/>
</clipPath>
<clipPath id="clip7_2105_7">
<rect width="57.0302" height="57.0302" fill="white" transform="translate(241.279 150.316) rotate(-135)"/>
</clipPath>
<clipPath id="clip8_2105_7">
<rect width="57.0302" height="57.0302" fill="white" transform="translate(241.279 285.733) rotate(-135)"/>
</clipPath>
</defs>
</svg>
