<svg width="82" height="25" viewBox="0 0 82 25" fill="none" xmlns="http://www.w3.org/2000/svg">
<g clip-path="url(#clip0_150_12140)">
<path d="M15.5545 10.7029C16.2403 11.9593 16.5836 13.3506 16.5836 14.8767V22.7028H12.2357V14.8767C12.2357 13.6786 11.907 12.6547 11.2501 11.8043C10.593 10.9543 9.66549 10.5291 8.46756 10.5291C7.26918 10.5291 6.34167 10.9543 5.68501 11.8043C5.02769 12.6547 4.69947 13.6786 4.69947 14.8767V22.7028H0.351562V14.8767C0.351562 13.3506 0.694344 11.9593 1.38057 10.7029C2.06635 9.44696 3.01829 8.44685 4.23571 7.7026C5.45313 6.95924 6.86345 6.58689 8.46756 6.58689C10.0712 6.58689 11.482 6.95924 12.6994 7.7026C13.9168 8.44685 14.8683 9.44696 15.5545 10.7029ZM35.2579 11.6591C35.7118 12.6641 35.9392 13.7368 35.9392 14.8767C35.9392 15.1474 35.9246 15.4032 35.8957 15.6447C35.8666 15.8867 35.8327 16.1331 35.7942 16.3841H23.1565C23.4847 17.2152 24.0114 17.8963 24.7362 18.4273C25.4607 18.9592 26.2964 19.2244 27.2434 19.2244C27.939 19.2244 28.5862 19.0703 29.1853 18.7607C29.7842 18.4519 30.2768 18.046 30.6637 17.5432H35.4754C35.0885 18.6258 34.4899 19.5918 33.6782 20.4418C32.8665 21.2923 31.9101 21.959 30.8087 22.4421C29.7071 22.9246 28.5188 23.1666 27.2434 23.1666C26.045 23.1666 24.9196 22.9538 23.8667 22.529C22.813 22.1042 21.8906 21.5101 21.0985 20.7461C20.3058 19.983 19.6828 19.099 19.2289 18.0939C18.7745 17.0898 18.5478 16.0171 18.5478 14.8767C18.5478 13.7368 18.7745 12.6641 19.2289 11.6591C19.6828 10.655 20.3058 9.77092 21.0985 9.00694C21.8906 8.24387 22.813 7.64972 23.8667 7.2245C24.9196 6.79972 26.045 6.58689 27.2434 6.58689C28.4413 6.58689 29.5669 6.79972 30.6203 7.2245C31.6733 7.64972 32.5958 8.24387 33.3883 9.00694C34.1805 9.77092 34.8037 10.655 35.2579 11.6591ZM31.3303 13.3694C31.0016 12.5387 30.4704 11.8576 29.7362 11.3257C29.0016 10.7948 28.1709 10.5291 27.2434 10.5291C26.2964 10.5291 25.4607 10.7948 24.7362 11.3257C24.0114 11.8576 23.4847 12.5387 23.1565 13.3694H31.3303ZM54.7263 11.6591C55.1802 12.6641 55.4076 13.7368 55.4076 14.8767C55.4076 15.1474 55.393 15.4032 55.3641 15.6447C55.335 15.8867 55.3012 16.1331 55.2626 16.3841H42.6249C42.9531 17.2152 43.4798 17.8963 44.2046 18.4273C44.9291 18.9592 45.7648 19.2244 46.7118 19.2244C47.4074 19.2244 48.0547 19.0703 48.6538 18.7607C49.2526 18.4519 49.7453 18.046 50.1322 17.5432H54.9439C54.5569 18.6258 53.9583 19.5918 53.1466 20.4418C52.3349 21.2923 51.3785 21.959 50.2771 22.4421C49.1755 22.9246 47.9872 23.1666 46.7118 23.1666C45.5134 23.1666 44.3881 22.9538 43.3351 22.529C42.2815 22.1042 41.3591 21.5101 40.5669 20.7461C39.7742 19.983 39.1512 19.099 38.6973 18.0939C38.243 17.0898 38.0162 16.0171 38.0162 14.8767C38.0162 13.7368 38.243 12.6641 38.6973 11.6591C39.1512 10.655 39.7742 9.77092 40.5669 9.00694C41.3591 8.24387 42.2815 7.64972 43.3351 7.2245C44.3881 6.79972 45.5134 6.58689 46.7118 6.58689C47.9097 6.58689 49.0353 6.79972 50.0887 7.2245C51.1417 7.64972 52.0643 8.24387 52.8567 9.00694C53.6489 9.77092 54.2722 10.655 54.7263 11.6591ZM50.7987 13.3694C50.47 12.5387 49.9388 11.8576 49.2047 11.3257C48.4701 10.7948 47.6393 10.5291 46.7118 10.5291C45.7648 10.5291 44.9291 10.7948 44.2046 11.3257C43.4798 11.8576 42.9531 12.5387 42.6249 13.3694H50.7987ZM70.3547 1.83325H74.702V22.7028H70.6442V20.8478C70.1226 21.5629 69.4658 22.1279 68.6736 22.5433C67.8805 22.9587 67.021 23.1666 66.0935 23.1666C64.9146 23.1666 63.8034 22.9538 62.7598 22.529C61.7167 22.1042 60.7986 21.5101 60.0064 20.7461C59.2138 19.983 58.5954 19.099 58.1514 18.0939C57.7065 17.0898 57.4847 16.0171 57.4847 14.8767C57.4847 13.7368 57.7065 12.6641 58.1514 11.6591C58.5954 10.655 59.2138 9.77092 60.0064 9.00694C60.7986 8.24387 61.7118 7.64972 62.7455 7.2245C63.7792 6.79972 64.8855 6.58689 66.0644 6.58689C66.8952 6.58689 67.6735 6.73162 68.3975 7.02152C69.1225 7.31143 69.7749 7.69811 70.3547 8.18114V1.83325ZM70.5286 14.8767C70.5286 14.0653 70.335 13.3309 69.9488 12.674C69.5616 12.0171 69.0401 11.4956 68.3832 11.1084C67.7263 10.7222 66.9919 10.5291 66.1805 10.5291C65.3686 10.5291 64.6341 10.7222 63.9773 11.1084C63.3204 11.4956 62.7984 12.0171 62.4121 12.674C62.0255 13.3309 61.8323 14.0653 61.8323 14.8767C61.8323 15.6882 62.0255 16.423 62.4121 17.0795C62.7984 17.7368 63.3204 18.2584 63.9773 18.6451C64.6341 19.0317 65.3686 19.2244 66.1805 19.2244C66.9919 19.2244 67.7263 19.0317 68.3832 18.6451C69.0401 18.2584 69.5616 17.7368 69.9488 17.0795C70.335 16.423 70.5286 15.6882 70.5286 14.8767ZM77.6001 1.83325V22.7028H81.9482V1.83325H77.6001Z" fill="#00140F"/>
<path d="M8.49231 19.0347C7.94815 19.0347 7.48691 19.2274 7.10924 19.613C6.7312 19.9982 6.54248 20.4556 6.54248 20.9845C6.54248 21.5289 6.7312 21.9901 7.10924 22.3676C7.48691 22.7454 7.94815 22.9347 8.49231 22.9347C9.02123 22.9347 9.47864 22.7454 9.86418 22.3676C10.2496 21.9901 10.4423 21.5289 10.4423 20.9845C10.4423 20.4556 10.2496 19.9982 9.86418 19.613C9.47864 19.2274 9.02123 19.0347 8.49231 19.0347Z" fill="#00140F"/>
</g>
<defs>
<clipPath id="clip0_150_12140">
<rect width="81.5967" height="21.3333" fill="white" transform="translate(0.351562 1.83325)"/>
</clipPath>
</defs>
</svg>
