<svg width="20" height="20" viewBox="0 0 20 20" fill="none" xmlns="http://www.w3.org/2000/svg">
<g clip-path="url(#clip0_2195_154)">
<path d="M18.361 5.24045C19.1731 6.7283 19.5795 8.37586 19.5795 10.1831V19.4509H14.4307V10.1831C14.4307 8.76427 14.0415 7.55181 13.2636 6.5447C12.4855 5.53812 11.3871 5.03457 9.96847 5.03457C8.54934 5.03457 7.45097 5.53812 6.67335 6.5447C5.89494 7.55181 5.50626 8.76427 5.50626 10.1831V19.4509H0.357422V10.1831C0.357422 8.37586 0.763347 6.7283 1.57599 5.24045C2.38809 3.75313 3.51538 2.5688 4.95707 1.68744C6.39876 0.807148 8.06887 0.366211 9.96847 0.366211C11.8675 0.366211 13.5382 0.807148 14.9799 1.68744C16.4216 2.5688 17.5483 3.75313 18.361 5.24045Z" fill="#181B23"/>
<path d="M9.99748 15.1069C9.35309 15.1069 8.80688 15.3352 8.35964 15.7918C7.91196 16.248 7.68848 16.7896 7.68848 17.4159C7.68848 18.0606 7.91196 18.6068 8.35964 19.0538C8.80688 19.5013 9.35309 19.7254 9.99748 19.7254C10.6238 19.7254 11.1655 19.5013 11.6221 19.0538C12.0785 18.6068 12.3067 18.0606 12.3067 17.4159C12.3067 16.7896 12.0785 16.248 11.6221 15.7918C11.1655 15.3352 10.6238 15.1069 9.99748 15.1069Z" fill="#3CE8A1"/>
</g>
<defs>
<clipPath id="clip0_2195_154">
<rect width="20" height="20" fill="white"/>
</clipPath>
</defs>
</svg>
