<svg width="309" height="268" viewBox="0 0 309 268" fill="none" xmlns="http://www.w3.org/2000/svg">
<rect width="308" height="267" transform="translate(0.333496 0.5)" fill="#F0DA60"/>
<g opacity="0.1">
<path d="M78.9401 204.065C71.2965 204.065 64.3515 202.298 58.1052 198.764C51.941 195.148 47.0919 190.175 43.5578 183.847C40.1058 177.436 38.3799 170.203 38.3799 162.149C38.3799 154.423 40.1469 147.355 43.6811 140.944C47.2152 134.533 52.0643 129.479 58.2285 125.78C64.3926 122.082 71.2965 120.233 78.9401 120.233C86.5836 120.233 93.4875 122.082 99.6516 125.78C105.816 129.479 110.665 134.533 114.199 140.944C117.733 147.355 119.5 154.423 119.5 162.149C119.5 170.203 117.733 177.436 114.199 183.847C110.747 190.175 105.898 195.148 99.6516 198.764C93.4875 202.298 86.5836 204.065 78.9401 204.065ZM78.9401 192.723C84.2823 192.723 89.0904 191.449 93.3642 188.901C97.638 186.271 101.008 182.655 103.473 178.052C105.939 173.45 107.172 168.149 107.172 162.149C107.172 156.149 105.939 150.848 103.473 146.245C101.008 141.643 97.638 138.067 93.3642 135.52C89.0904 132.89 84.2823 131.575 78.9401 131.575C73.5978 131.575 68.7897 132.89 64.5159 135.52C60.2421 138.067 56.8724 141.643 54.4067 146.245C51.941 150.848 50.7082 156.149 50.7082 162.149C50.7082 168.149 51.941 173.45 54.4067 178.052C56.8724 182.655 60.2421 186.271 64.5159 188.901C68.7897 191.449 73.5978 192.723 78.9401 192.723Z" fill="black"/>
<path d="M164.935 128.844H152.607V47.4768H164.935V81.6263L199.454 47.4768H215.604L176.893 85.6946L218.07 128.844H200.934L164.935 90.2561V128.844Z" fill="black"/>
<path d="M179.315 230.7V149.333H212.109C220.903 149.333 227.807 151.47 232.82 155.744C237.916 160.018 240.464 166.1 240.464 173.99C240.464 179.99 239.025 184.798 236.149 188.414C233.272 192.03 229.163 194.743 223.821 196.551L242.683 230.7H228.259L211.492 198.647H191.644V230.7H179.315ZM211.122 187.305C216.711 187.305 220.944 186.195 223.821 183.976C226.697 181.675 228.135 178.346 228.135 173.99C228.135 169.634 226.697 166.346 223.821 164.127C220.944 161.826 216.711 160.675 211.122 160.675H191.644V187.305H211.122Z" fill="black"/>
</g>
<path d="M188.708 115.094H138.865V103.062C138.865 98.9599 140.494 95.0254 143.395 92.1244C146.296 89.2235 150.231 87.5938 154.333 87.5938C161.741 87.5938 168.406 92.9133 169.837 99.9687C169.882 100.19 169.97 100.4 170.096 100.587C170.223 100.774 170.385 100.935 170.573 101.059C170.761 101.184 170.972 101.27 171.194 101.313C171.416 101.356 171.644 101.355 171.865 101.309C172.086 101.264 172.296 101.176 172.483 101.05C172.67 100.923 172.831 100.761 172.955 100.573C173.08 100.385 173.166 100.174 173.209 99.952C173.252 99.7304 173.251 99.5024 173.205 99.2813C171.426 90.5199 163.49 84.1562 154.333 84.1562C149.321 84.1619 144.515 86.1557 140.971 89.7C137.427 93.2444 135.433 98.05 135.427 103.062V115.094H119.958C118.591 115.094 117.279 115.637 116.312 116.604C115.345 117.571 114.802 118.882 114.802 120.25V168.375C114.802 169.743 115.345 171.054 116.312 172.021C117.279 172.988 118.591 173.531 119.958 173.531H188.708C190.076 173.531 191.388 172.988 192.355 172.021C193.321 171.054 193.865 169.743 193.865 168.375V120.25C193.865 118.882 193.321 117.571 192.355 116.604C191.388 115.637 190.076 115.094 188.708 115.094ZM190.427 168.375C190.427 168.831 190.246 169.268 189.924 169.59C189.602 169.913 189.164 170.094 188.708 170.094H119.958C119.503 170.094 119.065 169.913 118.743 169.59C118.421 169.268 118.24 168.831 118.24 168.375V120.25C118.24 119.794 118.421 119.357 118.743 119.035C119.065 118.712 119.503 118.531 119.958 118.531H188.708C189.164 118.531 189.602 118.712 189.924 119.035C190.246 119.357 190.427 119.794 190.427 120.25V168.375ZM154.333 128.844C151.75 128.846 149.261 129.819 147.36 131.569C145.459 133.319 144.284 135.719 144.068 138.294C143.852 140.869 144.61 143.431 146.193 145.473C147.776 147.515 150.067 148.889 152.615 149.323V158.062C152.615 158.518 152.796 158.956 153.118 159.278C153.44 159.6 153.878 159.781 154.333 159.781C154.789 159.781 155.227 159.6 155.549 159.278C155.871 158.956 156.052 158.518 156.052 158.062V149.323C158.6 148.889 160.891 147.515 162.474 145.473C164.057 143.431 164.815 140.869 164.599 138.294C164.383 135.719 163.208 133.319 161.307 131.569C159.406 129.819 156.917 128.846 154.333 128.844ZM154.333 146.031C152.974 146.031 151.645 145.628 150.514 144.873C149.383 144.117 148.502 143.043 147.982 141.787C147.461 140.531 147.325 139.149 147.591 137.815C147.856 136.481 148.511 135.256 149.472 134.295C150.434 133.333 151.659 132.679 152.992 132.413C154.326 132.148 155.708 132.284 156.964 132.805C158.221 133.325 159.294 134.206 160.05 135.337C160.805 136.467 161.208 137.797 161.208 139.156C161.208 140.98 160.484 142.728 159.195 144.018C157.906 145.307 156.157 146.031 154.333 146.031Z" fill="#343434"/>
</svg>
