<svg width="309" height="268" viewBox="0 0 309 268" fill="none" xmlns="http://www.w3.org/2000/svg">
<g clip-path="url(#clip0_298_3637)">
<rect width="308" height="267" transform="translate(0.333496 0.5)" fill="#F7F6F1"/>
<g clip-path="url(#clip1_298_3637)">
<line y1="-0.887342" x2="167.757" y2="-0.887342" transform="matrix(-0.648152 0.761511 -0.648152 -0.761511 84.3335 148.564)" stroke="#0D201B" stroke-width="1.77468"/>
<line y1="-0.887342" x2="167.757" y2="-0.887342" transform="matrix(-0.648152 0.761511 -0.648152 -0.761511 92.0352 148.564)" stroke="#0D201B" stroke-width="1.77468"/>
<line y1="-0.887342" x2="167.757" y2="-0.887342" transform="matrix(-0.648152 0.761511 -0.648152 -0.761511 99.7373 148.564)" stroke="#0D201B" stroke-width="1.77468"/>
<line y1="-0.887342" x2="167.757" y2="-0.887342" transform="matrix(-0.648152 0.761511 -0.648152 -0.761511 107.439 148.564)" stroke="#0D201B" stroke-width="1.77468"/>
<line y1="-0.887342" x2="167.757" y2="-0.887342" transform="matrix(-0.648152 0.761511 -0.648152 -0.761511 115.141 148.564)" stroke="#0D201B" stroke-width="1.77468"/>
<line y1="-0.887342" x2="167.757" y2="-0.887342" transform="matrix(-0.648152 0.761511 -0.648152 -0.761511 122.843 148.564)" stroke="#0D201B" stroke-width="1.77468"/>
<line y1="-0.887342" x2="167.757" y2="-0.887342" transform="matrix(-0.648152 0.761511 -0.648152 -0.761511 130.544 148.564)" stroke="#0D201B" stroke-width="1.77468"/>
<line y1="-0.887342" x2="167.757" y2="-0.887342" transform="matrix(-0.648152 0.761511 -0.648152 -0.761511 138.246 148.564)" stroke="#0D201B" stroke-width="1.77468"/>
<line y1="-0.887342" x2="167.757" y2="-0.887342" transform="matrix(-0.648152 0.761511 -0.648152 -0.761511 145.948 148.564)" stroke="#0D201B" stroke-width="1.77468"/>
<line y1="-0.887342" x2="167.757" y2="-0.887342" transform="matrix(-0.648152 0.761511 -0.648152 -0.761511 153.649 148.564)" stroke="#0D201B" stroke-width="1.77468"/>
<line y1="-0.887342" x2="167.757" y2="-0.887342" transform="matrix(-0.648152 0.761511 -0.648152 -0.761511 161.352 148.564)" stroke="#0D201B" stroke-width="1.77468"/>
<line y1="-0.887342" x2="167.757" y2="-0.887342" transform="matrix(-0.648152 0.761511 -0.648152 -0.761511 169.054 148.564)" stroke="#0D201B" stroke-width="1.77468"/>
<line y1="-0.887342" x2="167.757" y2="-0.887342" transform="matrix(-0.648152 0.761511 -0.648152 -0.761511 176.755 148.564)" stroke="#0D201B" stroke-width="1.77468"/>
<line y1="-0.887342" x2="167.757" y2="-0.887342" transform="matrix(-0.648152 0.761511 -0.648152 -0.761511 184.457 148.564)" stroke="#0D201B" stroke-width="1.77468"/>
<line y1="-0.887342" x2="167.757" y2="-0.887342" transform="matrix(-0.648152 0.761511 -0.648152 -0.761511 192.159 148.564)" stroke="#0D201B" stroke-width="1.77468"/>
</g>
<g clip-path="url(#clip2_298_3637)">
<line y1="-0.887342" x2="167.757" y2="-0.887342" transform="matrix(-0.648152 0.761511 -0.648152 -0.761511 138.609 124.564)" stroke="#0D201B" stroke-width="1.77468"/>
<line y1="-0.887342" x2="167.757" y2="-0.887342" transform="matrix(-0.648152 0.761511 -0.648152 -0.761511 146.311 124.564)" stroke="#0D201B" stroke-width="1.77468"/>
<line y1="-0.887342" x2="167.757" y2="-0.887342" transform="matrix(-0.648152 0.761511 -0.648152 -0.761511 154.013 124.564)" stroke="#0D201B" stroke-width="1.77468"/>
<line y1="-0.887342" x2="167.757" y2="-0.887342" transform="matrix(-0.648152 0.761511 -0.648152 -0.761511 161.715 124.564)" stroke="#0D201B" stroke-width="1.77468"/>
<line y1="-0.887342" x2="167.757" y2="-0.887342" transform="matrix(-0.648152 0.761511 -0.648152 -0.761511 169.417 124.564)" stroke="#0D201B" stroke-width="1.77468"/>
<line y1="-0.887342" x2="167.757" y2="-0.887342" transform="matrix(-0.648152 0.761511 -0.648152 -0.761511 177.118 124.564)" stroke="#0D201B" stroke-width="1.77468"/>
<line y1="-0.887342" x2="167.757" y2="-0.887342" transform="matrix(-0.648152 0.761511 -0.648152 -0.761511 184.82 124.564)" stroke="#0D201B" stroke-width="1.77468"/>
<line y1="-0.887342" x2="167.757" y2="-0.887342" transform="matrix(-0.648152 0.761511 -0.648152 -0.761511 192.522 124.564)" stroke="#0D201B" stroke-width="1.77468"/>
<line y1="-0.887342" x2="167.757" y2="-0.887342" transform="matrix(-0.648152 0.761511 -0.648152 -0.761511 200.224 124.564)" stroke="#0D201B" stroke-width="1.77468"/>
<line y1="-0.887342" x2="167.757" y2="-0.887342" transform="matrix(-0.648152 0.761511 -0.648152 -0.761511 207.926 124.564)" stroke="#0D201B" stroke-width="1.77468"/>
<line y1="-0.887342" x2="167.757" y2="-0.887342" transform="matrix(-0.648152 0.761511 -0.648152 -0.761511 215.627 124.564)" stroke="#0D201B" stroke-width="1.77468"/>
<line y1="-0.887342" x2="167.757" y2="-0.887342" transform="matrix(-0.648152 0.761511 -0.648152 -0.761511 223.329 124.564)" stroke="#0D201B" stroke-width="1.77468"/>
<line y1="-0.887342" x2="167.757" y2="-0.887342" transform="matrix(-0.648152 0.761511 -0.648152 -0.761511 231.031 124.564)" stroke="#0D201B" stroke-width="1.77468"/>
<line y1="-0.887342" x2="167.757" y2="-0.887342" transform="matrix(-0.648152 0.761511 -0.648152 -0.761511 238.733 124.564)" stroke="#0D201B" stroke-width="1.77468"/>
<line y1="-0.887342" x2="167.757" y2="-0.887342" transform="matrix(-0.648152 0.761511 -0.648152 -0.761511 246.435 124.564)" stroke="#0D201B" stroke-width="1.77468"/>
</g>
<g clip-path="url(#clip3_298_3637)">
<line y1="-0.887342" x2="167.757" y2="-0.887342" transform="matrix(-0.648152 0.761511 -0.648152 -0.761511 192.885 100.564)" stroke="#0D201B" stroke-width="1.77468"/>
<line y1="-0.887342" x2="167.757" y2="-0.887342" transform="matrix(-0.648152 0.761511 -0.648152 -0.761511 200.587 100.564)" stroke="#0D201B" stroke-width="1.77468"/>
<line y1="-0.887342" x2="167.757" y2="-0.887342" transform="matrix(-0.648152 0.761511 -0.648152 -0.761511 208.289 100.564)" stroke="#0D201B" stroke-width="1.77468"/>
<line y1="-0.887342" x2="167.757" y2="-0.887342" transform="matrix(-0.648152 0.761511 -0.648152 -0.761511 215.991 100.564)" stroke="#0D201B" stroke-width="1.77468"/>
<line y1="-0.887342" x2="167.757" y2="-0.887342" transform="matrix(-0.648152 0.761511 -0.648152 -0.761511 223.692 100.564)" stroke="#0D201B" stroke-width="1.77468"/>
<line y1="-0.887342" x2="167.757" y2="-0.887342" transform="matrix(-0.648152 0.761511 -0.648152 -0.761511 231.395 100.564)" stroke="#0D201B" stroke-width="1.77468"/>
<line y1="-0.887342" x2="167.757" y2="-0.887342" transform="matrix(-0.648152 0.761511 -0.648152 -0.761511 239.096 100.564)" stroke="#0D201B" stroke-width="1.77468"/>
<line y1="-0.887342" x2="167.757" y2="-0.887342" transform="matrix(-0.648152 0.761511 -0.648152 -0.761511 246.798 100.564)" stroke="#0D201B" stroke-width="1.77468"/>
<line y1="-0.887342" x2="167.757" y2="-0.887342" transform="matrix(-0.648152 0.761511 -0.648152 -0.761511 254.5 100.564)" stroke="#0D201B" stroke-width="1.77468"/>
<line y1="-0.887342" x2="167.757" y2="-0.887342" transform="matrix(-0.648152 0.761511 -0.648152 -0.761511 262.201 100.564)" stroke="#0D201B" stroke-width="1.77468"/>
<line y1="-0.887342" x2="167.757" y2="-0.887342" transform="matrix(-0.648152 0.761511 -0.648152 -0.761511 269.903 100.564)" stroke="#0D201B" stroke-width="1.77468"/>
<line y1="-0.887342" x2="167.757" y2="-0.887342" transform="matrix(-0.648152 0.761511 -0.648152 -0.761511 277.605 100.564)" stroke="#0D201B" stroke-width="1.77468"/>
<line y1="-0.887342" x2="167.757" y2="-0.887342" transform="matrix(-0.648152 0.761511 -0.648152 -0.761511 285.307 100.564)" stroke="#0D201B" stroke-width="1.77468"/>
<line y1="-0.887342" x2="167.757" y2="-0.887342" transform="matrix(-0.648152 0.761511 -0.648152 -0.761511 293.009 100.564)" stroke="#0D201B" stroke-width="1.77468"/>
<line y1="-0.887342" x2="167.757" y2="-0.887342" transform="matrix(-0.648152 0.761511 -0.648152 -0.761511 300.711 100.564)" stroke="#0D201B" stroke-width="1.77468"/>
</g>
<rect width="35.3458" height="153.279" rx="8" transform="matrix(1 0 0 -1 218.074 223.784)" fill="#0D201B"/>
<path d="M230.644 49.085C230.7 48.8145 230.526 48.5501 230.255 48.4944L225.848 47.5868C225.577 47.5311 225.313 47.7052 225.257 47.9757C225.201 48.2461 225.375 48.5105 225.646 48.5662L229.564 49.373L228.757 53.2908C228.701 53.5613 228.875 53.8257 229.146 53.8814C229.416 53.9371 229.681 53.763 229.736 53.4925L230.644 49.085ZM64.2535 158.824L230.429 49.4017L229.879 48.5665L63.7035 157.989L64.2535 158.824Z" fill="#7954FF"/>
</g>
<defs>
<clipPath id="clip0_298_3637">
<rect width="308" height="267" fill="white" transform="translate(0.333496 0.5)"/>
</clipPath>
<clipPath id="clip1_298_3637">
<rect x="55.2471" y="169.831" width="35.3458" height="53.953" rx="12" fill="white"/>
</clipPath>
<clipPath id="clip2_298_3637">
<rect x="109.523" y="145.831" width="35.3458" height="77.953" rx="12" fill="white"/>
</clipPath>
<clipPath id="clip3_298_3637">
<rect x="163.799" y="121.831" width="35.3458" height="101.953" rx="12" fill="white"/>
</clipPath>
</defs>
</svg>
