<svg width="309" height="268" viewBox="0 0 309 268" fill="none" xmlns="http://www.w3.org/2000/svg">
<rect width="308" height="267" transform="translate(0.0830078 0.5)" fill="#0D201B"/>
<g opacity="0.2">
<path d="M43.7725 77.6707V186.756C43.7725 188.965 45.5633 190.756 47.7725 190.756H246.471" stroke="white" stroke-linecap="round"/>
<path d="M43.7725 147.229H66.816" stroke="white" stroke-linecap="round"/>
<path d="M132.106 166.858V190.756" stroke="white" stroke-linecap="round"/>
<path d="M62.9751 77.6707H262.101C264.31 77.6707 266.101 79.4615 266.101 81.6707V190.756" stroke="white" stroke-linecap="round"/>
<path d="M176.913 77.6707V101.568" stroke="white" stroke-linecap="round"/>
<path d="M89.0061 101.568H70.8159C68.6068 101.568 66.8159 103.359 66.8159 105.568V120.185C66.8159 122.394 68.6068 124.185 70.8159 124.185H128.106C130.316 124.185 132.106 125.976 132.106 128.185V141.521C132.106 143.731 130.316 145.521 128.106 145.521H114.343C112.134 145.521 110.343 147.312 110.343 149.521V162.858C110.343 165.067 108.552 166.858 106.343 166.858H66.8159" stroke="white" stroke-linecap="round"/>
<path d="M87.2998 124.185V147.229" stroke="white" stroke-linecap="round"/>
<path d="M110.77 77.6707V124.185" stroke="white" stroke-linecap="round"/>
<path d="M243.911 147.229V128.185C243.911 125.976 245.702 124.185 247.911 124.185H266.101" stroke="white" stroke-linecap="round"/>
<path d="M221.294 169.419H266.101" stroke="white" stroke-linecap="round"/>
<path d="M132.106 101.568H151.15C153.359 101.568 155.15 103.359 155.15 105.568V120.185C155.15 122.394 156.941 124.185 159.15 124.185H172.913C175.122 124.185 176.913 125.976 176.913 128.185V143.229C176.913 145.438 178.704 147.229 180.913 147.229H217.294C219.503 147.229 221.294 145.438 221.294 143.229V105.568C221.294 103.359 219.503 101.568 217.294 101.568H203.456C201.276 101.568 199.497 103.313 199.456 105.492L199.104 124.185" stroke="white" stroke-linecap="round"/>
<path d="M243.471 101.568H218.294" stroke="white" stroke-linecap="round"/>
<path d="M155.15 147.229V162.858C155.15 165.067 156.941 166.858 159.15 166.858H195.53C197.739 166.858 199.53 165.067 199.53 162.858V147.229" stroke="white" stroke-linecap="round"/>
<path d="M177.34 166.858V190.756" stroke="white" stroke-linecap="round"/>
</g>
<rect x="245.244" y="210.444" width="20" height="20.0003" rx="10" fill="#3CE8A1"/>
<path d="M253.016 222.654C253.016 224.127 254.21 225.321 255.683 225.321C257.156 225.321 258.35 224.127 258.35 222.654C258.35 221.181 257.156 219.987 255.683 219.987C254.21 219.987 253.016 221.181 253.016 222.654ZM53.418 69.9185L53.418 129.268L54.418 129.268L54.418 69.9185L53.418 69.9185ZM59.918 135.768H69.2012V134.768H59.918V135.768ZM74.7012 141.268V151.304H75.7012V141.268H74.7012ZM69.2012 156.804H59.918V157.804H69.2012V156.804ZM53.418 163.304V171.061H54.418V163.304H53.418ZM59.918 177.561H116.416V176.561H59.918V177.561ZM122.916 171.061V163.304H121.916V171.061H122.916ZM128.416 157.804H135.454V156.804H128.416V157.804ZM141.954 151.304V121.511H140.954V151.304H141.954ZM135.454 115.011H128.416V116.011H135.454V115.011ZM122.916 109.511V96.4352H121.916V109.511H122.916ZM128.416 90.9352H159.823V89.9352H128.416V90.9352ZM165.323 96.4352V109.511H166.323V96.4352H165.323ZM171.823 116.011H182.669V115.011H171.823V116.011ZM189.169 109.511V96.4352H188.169V109.511H189.169ZM194.669 90.9352H249.683V89.9352H194.669V90.9352ZM255.183 96.4352V109.511H256.183V96.4352H255.183ZM249.683 115.011H241.883V116.011H249.683V115.011ZM235.383 121.511V151.304H236.383V121.511H235.383ZM229.883 156.804H214.468V157.804H229.883V156.804ZM207.968 163.304V174.861H208.968V163.304H207.968ZM214.468 181.361H249.683V180.361H214.468V181.361ZM255.183 186.861V222.654H256.183V186.861H255.183ZM249.683 181.361C252.721 181.361 255.183 183.823 255.183 186.861H256.183C256.183 183.271 253.273 180.361 249.683 180.361V181.361ZM207.968 174.861C207.968 178.451 210.878 181.361 214.468 181.361V180.361C211.431 180.361 208.968 177.898 208.968 174.861H207.968ZM214.468 156.804C210.878 156.804 207.968 159.715 207.968 163.304H208.968C208.968 160.267 211.431 157.804 214.468 157.804V156.804ZM235.383 151.304C235.383 154.342 232.921 156.804 229.883 156.804V157.804C233.473 157.804 236.383 154.894 236.383 151.304H235.383ZM241.883 115.011C238.293 115.011 235.383 117.921 235.383 121.511H236.383C236.383 118.474 238.846 116.011 241.883 116.011V115.011ZM255.183 109.511C255.183 112.549 252.721 115.011 249.683 115.011V116.011C253.273 116.011 256.183 113.101 256.183 109.511H255.183ZM249.683 90.9352C252.721 90.9352 255.183 93.3976 255.183 96.4352H256.183C256.183 92.8454 253.273 89.9352 249.683 89.9352V90.9352ZM189.169 96.4352C189.169 93.3976 191.631 90.9352 194.669 90.9352V89.9352C191.079 89.9352 188.169 92.8454 188.169 96.4352H189.169ZM182.669 116.011C186.258 116.011 189.169 113.101 189.169 109.511H188.169C188.169 112.549 185.706 115.011 182.669 115.011V116.011ZM165.323 109.511C165.323 113.101 168.233 116.011 171.823 116.011V115.011C168.785 115.011 166.323 112.549 166.323 109.511H165.323ZM159.823 90.9352C162.86 90.9352 165.323 93.3976 165.323 96.4352H166.323C166.323 92.8454 163.413 89.9352 159.823 89.9352V90.9352ZM122.916 96.4352C122.916 93.3976 125.378 90.9352 128.416 90.9352V89.9352C124.826 89.9352 121.916 92.8454 121.916 96.4352H122.916ZM128.416 115.011C125.378 115.011 122.916 112.549 122.916 109.511H121.916C121.916 113.101 124.826 116.011 128.416 116.011V115.011ZM141.954 121.511C141.954 117.921 139.044 115.011 135.454 115.011V116.011C138.492 116.011 140.954 118.474 140.954 121.511H141.954ZM135.454 157.804C139.044 157.804 141.954 154.894 141.954 151.304H140.954C140.954 154.342 138.492 156.804 135.454 156.804V157.804ZM122.916 163.304C122.916 160.267 125.378 157.804 128.416 157.804V156.804C124.826 156.804 121.916 159.715 121.916 163.304H122.916ZM116.416 177.561C120.006 177.561 122.916 174.651 122.916 171.061H121.916C121.916 174.099 119.453 176.561 116.416 176.561V177.561ZM53.418 171.061C53.418 174.651 56.3281 177.561 59.918 177.561V176.561C56.8804 176.561 54.418 174.099 54.418 171.061H53.418ZM59.918 156.804C56.3281 156.804 53.418 159.715 53.418 163.304H54.418C54.418 160.267 56.8804 157.804 59.918 157.804V156.804ZM74.7012 151.304C74.7012 154.342 72.2387 156.804 69.2012 156.804V157.804C72.791 157.804 75.7012 154.894 75.7012 151.304H74.7012ZM69.2012 135.768C72.2387 135.768 74.7012 138.231 74.7012 141.268H75.7012C75.7012 137.678 72.791 134.768 69.2012 134.768V135.768ZM53.418 129.268C53.418 132.858 56.3281 135.768 59.918 135.768V134.768C56.8804 134.768 54.418 132.306 54.418 129.268L53.418 129.268Z" fill="#3CE8A1"/>
</svg>
