<svg width="309" height="268" viewBox="0 0 309 268" fill="none" xmlns="http://www.w3.org/2000/svg">
<g clip-path="url(#clip0_298_3613)">
<rect width="308" height="267" transform="translate(0.0830078 0.5)" fill="#3D665C"/>
<rect opacity="0.2" x="119.246" y="60.4556" width="147.089" height="147.089" rx="7.74152" fill="#3CE8A1"/>
<g clip-path="url(#clip1_298_3613)">
<line y1="-0.858672" x2="162.336" y2="-0.858672" transform="matrix(-0.648152 0.761511 -0.648152 -0.761511 67.0747 121.161)" stroke="#3CE8A1" stroke-width="1.71734"/>
<line y1="-0.858672" x2="162.336" y2="-0.858672" transform="matrix(-0.648152 0.761511 -0.648152 -0.761511 74.5278 121.161)" stroke="#3CE8A1" stroke-width="1.71734"/>
<line y1="-0.858672" x2="162.336" y2="-0.858672" transform="matrix(-0.648152 0.761511 -0.648152 -0.761511 81.9805 121.161)" stroke="#3CE8A1" stroke-width="1.71734"/>
<line y1="-0.858672" x2="162.336" y2="-0.858672" transform="matrix(-0.648152 0.761511 -0.648152 -0.761511 89.4336 121.161)" stroke="#3CE8A1" stroke-width="1.71734"/>
<line y1="-0.858672" x2="162.336" y2="-0.858672" transform="matrix(-0.648152 0.761511 -0.648152 -0.761511 96.8867 121.161)" stroke="#3CE8A1" stroke-width="1.71734"/>
<line y1="-0.858672" x2="162.336" y2="-0.858672" transform="matrix(-0.648152 0.761511 -0.648152 -0.761511 104.34 121.161)" stroke="#3CE8A1" stroke-width="1.71734"/>
<line y1="-0.858672" x2="162.336" y2="-0.858672" transform="matrix(-0.648152 0.761511 -0.648152 -0.761511 111.792 121.161)" stroke="#3CE8A1" stroke-width="1.71734"/>
<line y1="-0.858672" x2="162.336" y2="-0.858672" transform="matrix(-0.648152 0.761511 -0.648152 -0.761511 119.245 121.161)" stroke="#3CE8A1" stroke-width="1.71734"/>
<line y1="-0.858672" x2="162.336" y2="-0.858672" transform="matrix(-0.648152 0.761511 -0.648152 -0.761511 126.698 121.161)" stroke="#3CE8A1" stroke-width="1.71734"/>
<line y1="-0.858672" x2="162.336" y2="-0.858672" transform="matrix(-0.648152 0.761511 -0.648152 -0.761511 134.151 121.161)" stroke="#3CE8A1" stroke-width="1.71734"/>
<line y1="-0.858672" x2="162.336" y2="-0.858672" transform="matrix(-0.648152 0.761511 -0.648152 -0.761511 141.604 121.161)" stroke="#3CE8A1" stroke-width="1.71734"/>
<line y1="-0.858672" x2="162.336" y2="-0.858672" transform="matrix(-0.648152 0.761511 -0.648152 -0.761511 149.058 121.161)" stroke="#3CE8A1" stroke-width="1.71734"/>
<line y1="-0.858672" x2="162.336" y2="-0.858672" transform="matrix(-0.648152 0.761511 -0.648152 -0.761511 156.51 121.161)" stroke="#3CE8A1" stroke-width="1.71734"/>
<line y1="-0.858672" x2="162.336" y2="-0.858672" transform="matrix(-0.648152 0.761511 -0.648152 -0.761511 163.963 121.161)" stroke="#3CE8A1" stroke-width="1.71734"/>
<line y1="-0.858672" x2="162.336" y2="-0.858672" transform="matrix(-0.648152 0.761511 -0.648152 -0.761511 171.416 121.161)" stroke="#3CE8A1" stroke-width="1.71734"/>
<line y1="-0.858672" x2="162.336" y2="-0.858672" transform="matrix(-0.648152 0.761511 -0.648152 -0.761511 178.869 121.161)" stroke="#3CE8A1" stroke-width="1.71734"/>
<line y1="-0.858672" x2="162.336" y2="-0.858672" transform="matrix(-0.648152 0.761511 -0.648152 -0.761511 186.322 121.161)" stroke="#3CE8A1" stroke-width="1.71734"/>
</g>
</g>
<defs>
<clipPath id="clip0_298_3613">
<rect width="308" height="267" fill="white" transform="translate(0.0830078 0.5)"/>
</clipPath>
<clipPath id="clip1_298_3613">
<rect x="41.8311" y="141.741" width="64.8352" height="65.8029" rx="11.6123" fill="white"/>
</clipPath>
</defs>
</svg>
